<svg width="21" height="17" viewBox="0 0 21 17" fill="none" xmlns="http://www.w3.org/2000/svg">
<path d="M18.8068 4.24316C18.8068 4.43478 18.8068 4.62641 18.8068 4.79066C18.8068 10.4573 14.4815 17 6.59742 17C4.16103 17 1.91626 16.2882 0 15.0837C0.328502 15.1111 0.68438 15.1385 1.01288 15.1385C3.01127 15.1385 4.87279 14.4541 6.35105 13.3043C4.46216 13.277 2.8744 12.0177 2.35427 10.3205C2.62802 10.3752 2.8744 10.4026 3.17552 10.4026C3.55878 10.4026 3.94203 10.3478 4.29791 10.2383C2.32689 9.85507 0.848631 8.13043 0.848631 6.04992C0.848631 6.02254 0.848631 6.02254 0.848631 5.99517C1.42351 6.32367 2.08052 6.5153 2.79227 6.54267C1.64251 5.77617 0.876006 4.46216 0.876006 2.95652C0.876006 2.16264 1.09501 1.42351 1.45089 0.793881C3.55878 3.39452 6.7343 5.09179 10.2931 5.28341C10.2109 4.98229 10.1836 4.62641 10.1836 4.29791C10.1836 1.91626 12.0998 0 14.4815 0C15.7134 0 16.8357 0.520129 17.6023 1.34138C18.5878 1.14976 19.4911 0.793881 20.3398 0.301127C20.0113 1.31401 19.3269 2.13527 18.4509 2.68277C19.3269 2.57327 20.1481 2.35427 20.9147 1.99839C20.3671 2.8744 19.6554 3.6409 18.8068 4.24316Z" fill="white"/>
</svg>
